<?xml version="1.0" encoding="UTF-8"?><svg id="Layer_2" xmlns="http://www.w3.org/2000/svg" xmlns:xlink="http://www.w3.org/1999/xlink" viewBox="0 0 49.36 49.93"><defs><style>.cls-1{fill:url(#linear-gradient-2);}.cls-2{fill:url(#linear-gradient-3);}.cls-3{fill:#35e313;}.cls-4{fill:url(#linear-gradient);}</style><linearGradient id="linear-gradient" x1="11.17" y1="164.67" x2="-24.28" y2="209.55" gradientTransform="translate(-165.63 30.34) rotate(-92.49)" gradientUnits="userSpaceOnUse"><stop offset=".03" stop-color="#2f8e15"/><stop offset=".5" stop-color="#35af13"/><stop offset=".99" stop-color="#2f8e15"/></linearGradient><linearGradient id="linear-gradient-2" x1="39.21" y1=".77" x2="3.49" y2="45.98" gradientTransform="translate(-1.41 -.37) rotate(-1.78)" gradientUnits="userSpaceOnUse"><stop offset=".03" stop-color="#2f8e15"/><stop offset=".5" stop-color="#35e313"/><stop offset=".99" stop-color="#2f8e15"/></linearGradient><linearGradient id="linear-gradient-3" x1="-2" y1="41.57" x2="-37.55" y2="86.57" gradientTransform="translate(91.9 38.45) rotate(87.51)" gradientUnits="userSpaceOnUse"><stop offset=".03" stop-color="#35bb13"/><stop offset=".51" stop-color="#2f8e15"/><stop offset="1" stop-color="#35dd13"/></linearGradient></defs><g id="Layer_1-2"><path class="cls-4" d="M49.22,39.34c-2.58,3.46-6.61,7.71-8.9,9.68C17.2,48.97,6.8,40.19.14,10.51,3.07,7.13,6.47.49,6.87.35c6.54,26.02,14.12,35.58,42.35,38.99Z"/><path class="cls-1" d="M9.52,49.93c-3.97-2.97-6.86-5.53-9.15-8.38C.71,18.44,9.15,6.29,38.9,0c3.34,2.97,9.57,8.5,9.71,8.89C22.51,15.11,13.28,21.74,9.52,49.93Z"/><path class="cls-2" d="M0,10.78C2.92,6.78,5.18,2.69,6.73.62c23.11.05,35.97,9.23,42.64,38.91-2.93,3.38-8.51,9.36-8.9,9.49C33.92,22.99,28.24,14.18,0,10.78Z"/><path class="cls-3" d="M38.9,0c3.97,2.97,7.97,6.92,9.71,8.89-1.03,24.49-13.76,34.24-39.09,41.04-3.33-1.7-7.22-6.2-9.15-8.38C25.26,35.5,36.17,26.62,38.9,0Z"/></g></svg>