<?xml version="1.0" encoding="UTF-8"?><svg id="Layer_2" xmlns="http://www.w3.org/2000/svg" viewBox="0 0 182.06 195.27"><defs><style>.cls-1{fill:none;stroke:#35e313;stroke-miterlimit:10;stroke-width:7px;}</style></defs><g id="Layer_1-2"><rect class="cls-1" x="3.5" y="8.35" width="111.15" height="183.42" rx="18.37" ry="18.37"/><path class="cls-1" d="M102.05,63.3c-33.05-.38-20.44-.68-44.17-.68s-4.93.11-41.77.68c0-23.73,19.24-42.97,42.97-42.97s42.97,19.24,42.97,42.97Z"/><line class="cls-1" x1="31.75" y1="27.02" x2="45.7" y2="41.18"/><line class="cls-1" x1="17.56" y1="49.6" x2="38.47" y2="49.76"/><line class="cls-1" x1="85.28" y1="27.12" x2="70.58" y2="41.29"/><line class="cls-1" x1="100.25" y1="49.7" x2="78.2" y2="49.87"/><line class="cls-1" x1="57.98" y1="33.36" x2="58.3" y2="76.51"/><path class="cls-1" d="M33.83,166.53c4.69-22.3,29.33-37.52,30.16-38.56"/><path class="cls-1" d="M72.11,142.5c-8.94,10.75-20.03,12.15-28.16,3.9-8.13-8.25-7.6-20.16,3.82-28.24s21.51-9.09,39.01-13.94c-3.98,18.79-5.9,27.71-14.67,38.27Z"/><path class="cls-1" d="M162.92,51.44v121.1c0,4.57-3.74,8.32-8.32,8.32h-17.78c-4.57,0-8.32-3.74-8.32-8.32v-100.31c.06-6.95-2.84-8.47-12.47-8.32"/><path class="cls-1" d="M178.56,15.88v20.02c0,8.65-7.08,15.1-15.73,15.1h0c-8.65,0-15.73-6.45-15.73-15.1v-17.51c13.53-.17,19.62-.05,31.45,0"/><line class="cls-1" x1="154.58" y1=".41" x2="154.87" y2="20.65"/><line class="cls-1" x1="154.58" y1=".05" x2="154.87" y2="19.66"/><line class="cls-1" x1="170.24" y1=".05" x2="170.52" y2="19.66"/></g></svg>