<?xml version="1.0" encoding="UTF-8"?><svg id="Layer_2" xmlns="http://www.w3.org/2000/svg" viewBox="0 0 178.69 191.75"><defs><style>.cls-1{fill:none;stroke:#35e313;stroke-miterlimit:10;stroke-width:7px;}</style></defs><g id="Layer_1-2"><path class="cls-1" d="M53.48,138.91c13.22-15.87,40.91-18.73,42.07-19.25"/><path class="cls-1" d="M96.66,134.15c-12.19,5.17-22.42,2.15-26.12-7.38s1.65-18.75,14.9-20.88c13.36-2.15,22.46.82,39.68,3.49-11.17,13.37-16.49,19.7-28.46,24.78Z"/><path class="cls-1" d="M152.5,88.29v58.79c0,15.77-14.23,28.68-31.62,28.68H56.05c-17.39,0-31.62-12.91-31.62-28.68v-58.79"/><rect class="cls-1" x="3.5" y="63.93" width="171.69" height="21.15" rx="6.74" ry="6.74"/><path class="cls-1" d="M41.89,66.47V13.41c0-5.47,4.89-9.91,10.92-9.91h1.47c6.03,0,10.92,4.44,10.92,9.91v53.06"/><path class="cls-1" d="M113.04,66.47V13.41c0-5.47,4.89-9.91,10.92-9.91h1.47c6.03,0,10.92,4.44,10.92,9.91v53.06"/><line class="cls-1" x1="89.35" y1="172.89" x2="89.35" y2="191.75"/></g></svg>