<?xml version="1.0" encoding="UTF-8"?><svg id="Layer_2" xmlns="http://www.w3.org/2000/svg" viewBox="0 0 195.43 194.75"><defs><style>.cls-1{fill:#35e313;}.cls-2{fill:none;stroke:#35e313;stroke-miterlimit:10;stroke-width:7px;}</style></defs><g id="Layer_1-2"><path class="cls-2" d="M60.85,115.79c12.88-17.05,39.85-20.12,40.98-20.67"/><path class="cls-2" d="M102.91,110.69c-11.87,5.56-21.84,2.31-25.44-7.93-3.6-10.24,1.6-20.13,14.51-22.43s21.87.88,38.65,3.75c-10.88,14.35-16.06,21.15-27.72,26.61Z"/><rect class="cls-2" x="22.4" y="22.2" width="150.94" height="150.94" rx="18.99" ry="18.99"/><circle class="cls-1" cx="44.39" cy="42.66" r="7.71"/><circle class="cls-1" cx="151.35" cy="42.66" r="7.71"/><circle class="cls-1" cx="44.39" cy="148.84" r="7.71"/><circle class="cls-1" cx="151.35" cy="148.84" r="7.71"/><line class="cls-2" x1="45.66" x2="45.66" y2="24.79"/><line class="cls-2" x1="68.99" x2="68.99" y2="24.79"/><line class="cls-2" x1="95.74" x2="95.74" y2="24.79"/><line class="cls-2" x1="147.52" x2="147.52" y2="24.79"/><line class="cls-2" x1="121.92" x2="121.92" y2="24.79"/><line class="cls-2" x1="45.66" y1="169.96" x2="45.66" y2="194.75"/><line class="cls-2" x1="68.99" y1="169.96" x2="68.99" y2="194.75"/><line class="cls-2" x1="95.74" y1="169.96" x2="95.74" y2="194.75"/><line class="cls-2" x1="147.52" y1="169.96" x2="147.52" y2="194.75"/><line class="cls-2" x1="121.92" y1="169.96" x2="121.92" y2="194.75"/><line class="cls-2" x1="195.43" y1="48.64" x2="170.64" y2="48.64"/><line class="cls-2" x1="195.43" y1="71.97" x2="170.64" y2="71.97"/><line class="cls-2" x1="195.43" y1="98.72" x2="170.64" y2="98.72"/><line class="cls-2" x1="195.43" y1="150.5" x2="170.64" y2="150.5"/><line class="cls-2" x1="195.43" y1="124.89" x2="170.64" y2="124.89"/><line class="cls-2" x1="24.79" y1="48.64" x2="0" y2="48.64"/><line class="cls-2" x1="24.79" y1="71.97" x2="0" y2="71.97"/><line class="cls-2" x1="24.79" y1="98.72" x2="0" y2="98.72"/><line class="cls-2" x1="24.79" y1="150.5" x2="0" y2="150.5"/><line class="cls-2" x1="24.79" y1="124.89" x2="0" y2="124.89"/></g></svg>