<?xml version="1.0" encoding="UTF-8"?><svg id="Layer_2" xmlns="http://www.w3.org/2000/svg" viewBox="0 0 214.26 192.64"><defs><style>.cls-1{fill:none;stroke:#35e313;stroke-miterlimit:10;stroke-width:7px;}</style></defs><g id="Layer_1-2"><path class="cls-1" d="M133.61,39.35c13.67-16.86,42.32-19.89,43.52-20.44"/><path class="cls-1" d="M178.27,34.3c-12.61,5.49-23.2,2.29-27.02-7.84s1.7-19.91,15.41-22.18c13.82-2.28,23.23.87,41.05,3.71-11.55,14.19-17.06,20.92-29.44,26.31Z"/><path class="cls-1" d="M102.45,38.06L12.51,74.14c-3.38,1.34-7.2-.3-8.54-3.68h0c-1.34-3.38.3-7.2,3.68-8.54L102,24.37"/><path class="cls-1" d="M99.27,38.06l89.93,36.08c3.38,1.34,7.2-.3,8.54-3.68h0c1.34-3.38-.3-7.2-3.68-8.54L99.72,24.37"/><path class="cls-1" d="M23.74,69.51c0,39.47-.18,91.04,0,119.6,73.88-.24,86.85-.43,152.05,0,.34-31.06,0-80.14,0-119.61"/><rect class="cls-1" x="38.24" y="77.78" width="52.26" height="32.16"/><rect class="cls-1" x="109.11" y="77.78" width="52.26" height="32.16"/><rect class="cls-1" x="80.24" y="124.92" width="43.43" height="63.8"/></g></svg>