<?xml version="1.0" encoding="UTF-8"?><svg id="Layer_2" xmlns="http://www.w3.org/2000/svg" viewBox="0 0 337.02 332.16"><defs><style>.cls-1{fill:#35e313;}</style></defs><g id="Layer_1-2"><path class="cls-1" d="M126.02,265.32H41.85l33.82-58.58,3.7,13.77c1.84,6.84,8.02,11.35,14.78,11.35,1.32,0,2.66-.17,3.99-.53,8.17-2.19,13.01-10.6,10.82-18.77l-13.28-49.42s0,0,0-.01c0,0,0,0,0,0,0-.01,0-.02-.01-.03-.04-.15-.1-.29-.14-.43-.1-.33-.19-.65-.31-.97,0-.02-.01-.04-.02-.06-.03-.08-.07-.16-.11-.25-.04-.1-.09-.2-.13-.3-.11-.26-.21-.52-.34-.77-.02-.03-.03-.06-.04-.09-.1-.2-.22-.38-.32-.58-.04-.08-.09-.16-.13-.23-.05-.09-.1-.18-.15-.26-.03-.05-.05-.1-.08-.15-.02-.03-.04-.07-.06-.1-.12-.19-.25-.36-.38-.54-.14-.2-.27-.4-.42-.6-.08-.1-.16-.19-.24-.29-.07-.08-.14-.16-.21-.25-.01-.01-.02-.02-.03-.04-.16-.19-.32-.39-.49-.58,0,0,0,0,0,0-.15-.16-.31-.31-.47-.46-.02-.02-.03-.03-.05-.05-.18-.18-.36-.36-.55-.53,0,0,0,0,0,0-.13-.11-.27-.22-.41-.32-.08-.06-.16-.13-.24-.19-.17-.14-.34-.28-.52-.41-.37-.27-.76-.51-1.15-.74-.04-.02-.08-.05-.12-.08,0,0,0,0,0,0-.37-.21-.75-.4-1.14-.58-.07-.03-.13-.07-.19-.1,0,0,0,0-.01,0-.21-.09-.43-.17-.64-.26-.04-.02-.08-.03-.13-.05-.2-.08-.41-.17-.61-.24,0,0,0,0-.01,0-.26-.09-.52-.15-.78-.23-.02,0-.04-.01-.07-.02-.06-.02-.13-.04-.19-.05-.13-.04-.27-.08-.4-.11-.26-.06-.53-.1-.8-.15-.16-.03-.32-.06-.48-.08-.06-.01-.13-.03-.19-.03,0,0,0,0,0,0-.26-.03-.52-.05-.78-.07-.24-.02-.48-.05-.73-.05-.26,0-.51,0-.77,0-.11,0-.23,0-.34,0-.1,0-.2,0-.3,0-.03,0-.06,0-.09,0-.26.02-.51.06-.77.09-.04,0-.09,0-.13.01-.18.02-.36.03-.54.06-.01,0-.03,0-.04,0-.08.01-.15.03-.23.05-.33.06-.66.13-.98.21-.09.02-.19.04-.28.06h0s0,0,0,0h0s-49.46,13.27-49.46,13.27c-8.17,2.19-13.02,10.59-10.83,18.77,1.84,6.84,8.02,11.35,14.79,11.35,1.31,0,2.65-.17,3.98-.53l13.73-3.68L2.05,272.98c-2.74,4.74-2.74,10.58,0,15.32,2.74,4.74,7.79,7.66,13.27,7.66h110.7c8.46,0,15.32-6.86,15.32-15.32s-6.86-15.32-15.32-15.32Z"/><path class="cls-1" d="M279.62,177.11c-4.23-7.33-13.6-9.84-20.93-5.61-7.33,4.23-9.84,13.6-5.61,20.93l42.08,72.89h-67.65s10.07-10.09,10.07-10.09c5.98-5.99,5.97-15.69-.02-21.66-5.99-5.98-15.69-5.97-21.66.02l-36.17,36.23c-.07.07-.12.14-.19.21-.28.29-.56.59-.82.91-.01.02-.03.03-.04.05-.14.18-.27.36-.4.54-.01.02-.03.04-.04.06-.14.18-.28.37-.41.55-.02.03-.04.06-.06.09-.13.19-.23.4-.35.59,0,0,0,.01-.01.02-.09.15-.18.3-.26.45-.03.05-.06.1-.09.15-.02.03-.04.07-.06.1-.1.19-.17.38-.26.57,0,.02-.02.03-.02.05-.06.13-.12.25-.17.37-.04.09-.09.18-.12.27-.01.04-.03.07-.05.11-.08.19-.13.39-.2.58,0,0,0,.02,0,.02-.08.23-.17.47-.24.7-.01.03-.02.06-.03.09-.06.21-.1.42-.15.63h0c-.06.24-.13.49-.18.73,0,.02-.01.05-.02.07-.03.18-.05.36-.08.54-.01.07-.02.15-.03.22-.01.1-.03.2-.04.3-.02.11-.04.23-.05.34,0,.02,0,.04,0,.05-.02.17-.01.33-.02.5-.02.29-.04.57-.04.86,0,.03,0,.07,0,.1h0c0,.14.02.28.02.41.01.36.02.71.05,1.07,0,.01,0,.03,0,.04,0,.09.03.18.04.27.01.12.03.23.05.35.04.27.07.53.12.79,0,.02.01.04.02.06.05.24.12.48.17.71.06.22.1.44.16.66,0,.03.02.06.03.08.07.23.16.46.24.69.07.21.14.42.22.63.01.03.03.06.04.09.09.21.19.42.29.62.1.21.19.43.3.64.02.03.04.06.06.09,0,.01.02.03.02.04.1.18.21.36.32.53.13.21.24.43.38.64.02.03.04.05.06.07.01.02.03.04.04.06.13.19.27.36.4.55.14.19.27.38.41.56.01.01.02.02.03.04h0c.3.37.62.72.96,1.06.02.02.03.04.05.06l36.23,36.2c2.99,2.99,6.91,4.48,10.83,4.48s7.85-1.5,10.84-4.49c5.98-5.98,5.98-15.68,0-21.66l-10.05-10.05h94.12c5.47,0,10.53-2.92,13.27-7.66,2.74-4.74,2.74-10.58,0-15.32l-55.35-95.87Z"/><path class="cls-1" d="M230.12,143.67s0,0,.01,0c.01,0,.02,0,.03,0,.19.05.37.09.56.13.14.03.28.07.43.1.1.02.19.03.29.05.23.04.46.08.69.11.16.02.31.03.47.05.05,0,.09,0,.14.01.04,0,.08,0,.12.01.09,0,.18.02.27.03.33.02.66.03.99.03.03,0,.06,0,.09,0,.35,0,.7-.02,1.04-.04.12,0,.24-.02.36-.04.17-.02.34-.04.5-.06.1-.01.2-.02.3-.04.07-.01.13-.01.2-.03.05,0,.1-.02.16-.03.05,0,.11-.02.16-.03.24-.05.49-.09.73-.15.06-.01.12-.02.18-.04,0,0,.02,0,.02,0,.01,0,.02,0,.03-.01.38-.1.76-.21,1.13-.33,0,0,0,0,0,0,0,0,.02,0,.02,0,.11-.04.22-.08.33-.13.23-.09.47-.17.7-.27.03-.01.07-.02.1-.04.07-.03.14-.07.21-.1.14-.06.27-.13.4-.19.11-.05.22-.1.32-.15.06-.03.12-.05.17-.08.06-.03.12-.07.19-.11.1-.05.2-.1.29-.16.08-.04.15-.1.22-.14,0,0,0,0,.01,0,.12-.07.24-.13.35-.21.16-.1.31-.21.46-.32.04-.02.07-.05.11-.07.1-.07.2-.13.29-.21.05-.04.1-.07.15-.1.21-.16.41-.33.61-.5.04-.03.08-.06.12-.09.07-.06.15-.12.22-.19,0,0,0,0,0,0,.2-.18.39-.37.58-.56.1-.1.21-.19.31-.3.03-.03.05-.06.08-.09.04-.05.08-.09.13-.14.06-.07.13-.15.19-.22.11-.12.22-.24.32-.36.03-.04.07-.08.11-.12.06-.07.11-.15.16-.22.11-.13.21-.28.31-.41.08-.11.17-.21.24-.33.01-.02.02-.03.03-.04.08-.12.16-.26.24-.38.09-.14.17-.27.26-.41.04-.07.09-.14.13-.21.01-.02.03-.04.04-.07.1-.18.19-.37.29-.56.07-.13.14-.26.2-.4.15-.31.28-.63.41-.95.02-.06.05-.13.08-.19.02-.05.05-.11.07-.16.15-.41.29-.83.4-1.26,0,0,0-.02,0-.02,0-.02.01-.04.02-.06,0,0,0,0,0,0h0s0,0,0,0c0,0,0,0,0,0l13.23-49.47c2.19-8.17-2.67-16.57-10.84-18.76-8.17-2.19-16.57,2.67-18.76,10.84l-3.67,13.73L181.8,7.66c-2.74-4.74-7.79-7.66-13.27-7.66s-10.53,2.92-13.27,7.66l-55.35,95.87c-4.23,7.33-1.72,16.7,5.61,20.93,7.32,4.23,16.7,1.72,20.93-5.61l42.08-72.89,33.82,58.58-13.77-3.68c-8.16-2.18-16.57,2.67-18.75,10.85-2.18,8.17,2.67,16.57,10.85,18.75l49.44,13.21Z"/></g></svg>