<?xml version="1.0" encoding="UTF-8"?><svg id="Layer_2" xmlns="http://www.w3.org/2000/svg" viewBox="0 0 67.79 65.93"><defs><style>.cls-1{fill:#35e313;}</style></defs><g id="Layer_1-2"><path class="cls-1" d="M67.79,34.23c.02.37-.05.74-.09,1.11-.06.71-.12,1.41-.19,2.12-.17,1.7-.49,3.37-.92,5.02-1.05,3.98-2.78,7.65-5.18,11-1.29,1.8-2.73,3.46-4.35,4.98-2.04,1.91-4.28,3.55-6.72,4.92-1.76.98-3.58,1.82-5.49,2.44-1.04.34-1.96-.03-2.57-.93-.44-.64-.66-1.35-.66-2.12,0-3.11-.04-6.21.02-9.31.02-.97.04-1.94-.12-2.9-.08-.49-.29-.95-.46-1.42-.02-.08-.05-.16-.09-.27,1.82-.33,3.55-.77,5.22-1.41,2.17-.82,4.18-1.92,5.94-3.44,2.92-2.52,4.58-5.7,5.05-9.52.08-.69.04-1.39.05-2.08.01-.48.04-.96.02-1.44-.06-1.59-.34-3.14-.82-4.65-.64-2.01-1.64-3.81-3.03-5.39-.09-.1-.2-.18-.27-.28-.05-.09-.1-.24-.06-.31.57-1.06.77-2.21.83-3.38.09-1.52.03-3.04-.55-4.47-.21-.55-.52-1.05-.77-1.59-.16-.35-.44-.45-.77-.41-.82.1-1.65.17-2.46.34-2,.42-3.79,1.33-5.4,2.57-.52.4-.99.85-1.46,1.3-.18.18-.34.23-.58.17-1.15-.28-2.29-.58-3.45-.79-.77-.14-1.56-.18-2.34-.22-1-.05-2-.1-3-.08-1.08.02-2.17.07-3.23.21-1.41.18-2.81.46-4.16.95-.18.07-.28.03-.42-.11-1.24-1.31-2.68-2.32-4.31-3.09-.95-.45-1.94-.8-2.97-.99-.68-.12-1.37-.19-2.06-.27-.36-.04-.63.11-.84.44-.81,1.28-1.21,2.69-1.27,4.18-.06,1.57.01,3.14.66,4.62.1.22.2.44.34.64.12.17.09.28-.04.42-.82.86-1.52,1.8-2.12,2.82-1.08,1.82-1.73,3.79-2.03,5.88-.09.63-.15,1.26-.2,1.89-.02.28.02.56.03.85,0,.1.02.2.02.29-.12,3.22.79,6.15,2.61,8.78,1.12,1.62,2.57,2.93,4.21,4.03,1.39.93,2.88,1.65,4.45,2.22,1.49.54,3.02.99,4.6,1.23.14.02.28.09.42.13-.16.48-.36.93-.43,1.39-.13.95-.22,1.9-.27,2.86-.02.25-.09.33-.3.4-1.1.4-2.23.46-3.38.42-1.78-.05-3.39-.57-4.84-1.61-.87-.63-1.44-1.5-2.05-2.36-1.1-1.55-2.56-2.59-4.48-2.89-.51-.09-1.03-.09-1.54.05-.56.17-.68.59-.27,1.01.25.26.52.5.81.71,1.4.99,2.31,2.36,3.06,3.86.45.91.79,1.87,1.45,2.67,1.63,1.97,3.71,3.08,6.22,3.47,1,.16,1.99.16,2.98.11.65-.03,1.3-.18,1.95-.28.11-.02.23-.03.38-.05.02.14.04.26.03.37-.01.63-.05,1.26-.05,1.9,0,.59.05,1.18.05,1.77.01,1.04-.33,1.95-1.09,2.68-.57.55-1.27.71-2.01.49-1.61-.49-3.14-1.19-4.64-1.96-2.51-1.29-4.8-2.87-6.92-4.73-2-1.75-3.75-3.72-5.28-5.89-2.19-3.11-3.81-6.49-4.86-10.15-.55-1.92-.92-3.87-1.13-5.84-.19-1.69-.26-3.38-.15-5.08.27-4.17,1.17-8.17,2.87-11.99,1.29-2.9,2.95-5.56,4.97-7.99,1.83-2.2,3.91-4.14,6.23-5.81,1.62-1.17,3.35-2.18,5.15-3.05,1.9-.91,3.86-1.64,5.89-2.18,1.14-.3,2.31-.49,3.48-.7.72-.13,1.45-.17,2.17-.27,1.54-.22,3.09-.25,4.63-.13,1.21.09,2.42.25,3.63.4,2.58.33,5.05,1.07,7.46,2.02,1.95.78,3.82,1.71,5.57,2.88,1.3.87,2.55,1.84,3.77,2.82,1.6,1.29,3,2.8,4.3,4.39,2.25,2.77,4.02,5.82,5.3,9.15.85,2.21,1.46,4.48,1.83,6.82.15.94.22,1.9.31,2.85.08.94.14,1.87.18,2.82Z"/></g></svg>