<?xml version="1.0" encoding="UTF-8"?><svg id="Layer_2" xmlns="http://www.w3.org/2000/svg" viewBox="0 0 73.77 49.66"><defs><style>.cls-1{fill:#35e313;}</style></defs><g id="Layer_1-2"><path class="cls-1" d="M73.28,11.01c0-5.81-4.77-10.52-10.65-10.52-7.98-.34-16.12-.49-24.44-.49h-2.6c-8.31,0-16.46.15-24.44.49C5.26.49.49,5.2.49,11.01.15,15.61,0,20.22,0,24.82c0,4.61.15,9.2.49,13.82,0,5.8,4.77,10.51,10.65,10.51,8.4.37,16.98.52,25.74.5,8.76.02,17.34-.13,25.74-.5,5.88,0,10.65-4.71,10.65-10.51.35-4.62.51-9.21.5-13.82.01-4.61-.14-9.21-.5-13.81ZM48.2,27.04l-20.3,11.75c-2.13,1.24-3.88.24-3.88-2.22l-.03-23.47c0-2.46,1.74-3.46,3.88-2.24l20.33,11.7c2.14,1.22,2.14,3.24,0,4.48Z"/></g></svg>