<?xml version="1.0" encoding="UTF-8"?><svg id="Layer_2" xmlns="http://www.w3.org/2000/svg" viewBox="0 0 210.8 209.9"><defs><style>.cls-1{fill:none;stroke:#000;stroke-linecap:round;stroke-linejoin:round;stroke-width:18px;}</style></defs><g id="Layer_1-2"><path class="cls-1" d="M9,74.17h192.8M105.4,9l-43.45,65.17,43.45,126.72,43.45-126.72L105.4,9ZM112.35,195.25l86.9-115.86c1.4-1.87,2.1-2.8,2.37-3.83.24-.91.24-1.86,0-2.77-.27-1.03-.97-1.96-2.37-3.83l-42.36-56.48c-.96-1.27-1.43-1.91-2.04-2.37-.54-.41-1.14-.71-1.79-.9-.73-.21-1.53-.21-3.12-.21H60.87c-1.59,0-2.39,0-3.12.21-.65.18-1.25.49-1.79.9-.61.46-1.08,1.1-2.04,2.37L11.55,68.96c-1.4,1.87-2.1,2.8-2.37,3.83-.24.91-.24,1.86,0,2.77.27,1.03.97,1.96,2.37,3.83l86.9,115.86c2.36,3.14,3.54,4.72,4.98,5.28,1.27.49,2.67.49,3.94,0,1.45-.56,2.63-2.13,4.98-5.28Z"/></g></svg>