<?xml version="1.0" encoding="UTF-8"?><svg id="Layer_2" xmlns="http://www.w3.org/2000/svg" viewBox="0 0 213.65 213.65"><defs><style>.cls-1{fill:none;stroke:#000;stroke-linecap:round;stroke-linejoin:round;stroke-width:18px;}</style></defs><g id="Layer_1-2"><path class="cls-1" d="M122.79,50.19c10.06,1.96,19.3,6.88,26.55,14.13,7.25,7.25,12.17,16.49,14.13,26.55M122.79,9c20.9,2.32,40.38,11.68,55.26,26.54,14.88,14.86,24.26,34.33,26.61,55.23M168.61,204.65C80.46,204.65,9,133.19,9,45.04c0-3.98.15-7.92.43-11.82.33-4.48.49-6.72,1.67-8.76.97-1.69,2.7-3.29,4.45-4.14,2.12-1.02,4.59-1.02,9.54-1.02h29.01c4.16,0,6.24,0,8.02.68,1.57.6,2.98,1.59,4.08,2.86,1.25,1.44,1.96,3.39,3.38,7.3l12.01,33.02c1.65,4.55,2.48,6.82,2.34,8.98-.12,1.9-.77,3.73-1.88,5.29-1.25,1.76-3.32,3.01-7.47,5.5l-14.09,8.46c12.38,27.28,34.5,49.43,61.79,61.79l8.46-14.09c2.49-4.15,3.73-6.22,5.5-7.47,1.55-1.1,3.38-1.75,5.29-1.88,2.16-.14,4.43.69,8.98,2.34l33.02,12.01c3.91,1.42,5.86,2.13,7.3,3.38,1.27,1.11,2.26,2.51,2.86,4.08.68,1.78.68,3.86.68,8.02v29.01c0,4.94,0,7.42-1.02,9.54-.85,1.76-2.45,3.48-4.14,4.45-2.04,1.17-4.28,1.34-8.76,1.67-3.9.29-7.85.43-11.82.43Z"/></g></svg>