<?xml version="1.0" encoding="UTF-8"?><svg id="Layer_2" xmlns="http://www.w3.org/2000/svg" viewBox="0 0 149.49 215.23"><defs><style>.cls-1{fill:none;stroke:#000;stroke-linecap:round;stroke-linejoin:round;stroke-width:18px;}</style></defs><g id="Layer_1-2"><path class="cls-1" d="M30.91,118.57l-18.07,22.59c-1.42,1.78-2.14,2.67-2.64,3.66-.45.88-.78,1.82-.98,2.78-.22,1.09-.22,2.23-.22,4.51v54.12l43.83-54.79M118.57,118.57l18.07,22.59c1.42,1.78,2.14,2.67,2.64,3.66.45.88.78,1.82.98,2.78.22,1.09.22,2.23.22,4.51v54.12l-43.83-54.79M74.74,118.57v76.7M30.91,63.79h87.66M74.74,9l-39.4,44.33c-1.64,1.84-2.46,2.76-3.04,3.81-.52.93-.9,1.93-1.13,2.97-.26,1.17-.26,2.4-.26,4.87v42.64c0,15.34,0,23.01,2.99,28.87,2.63,5.15,6.82,9.34,11.97,11.97,5.86,2.99,13.53,2.99,28.87,2.99s23.01,0,28.87-2.99c5.15-2.63,9.34-6.82,11.97-11.97,2.99-5.86,2.99-13.53,2.99-28.87v-42.64c0-2.47,0-3.7-.26-4.87-.23-1.04-.61-2.04-1.13-2.97-.58-1.05-1.4-1.97-3.04-3.81L74.74,9Z"/></g></svg>