<?xml version="1.0" encoding="UTF-8"?><svg id="Layer_2" xmlns="http://www.w3.org/2000/svg" viewBox="0 0 187.04 208.17"><defs><style>.cls-1{fill:none;stroke:#000;stroke-linecap:round;stroke-linejoin:round;stroke-width:18px;}</style></defs><g id="Layer_1-2"><path class="cls-1" d="M93.52,9h-50.71c-11.83,0-17.75,0-22.27,2.3-3.98,2.03-7.21,5.26-9.23,9.23-2.3,4.52-2.3,10.44-2.3,22.27v122.56c0,11.83,0,17.75,2.3,22.27,2.03,3.98,5.26,7.21,9.23,9.23,4.52,2.3,10.44,2.3,22.27,2.3h40.15M93.52,9l63.39,63.39M93.52,9v46.49c0,5.92,0,8.88,1.15,11.14,1.01,1.99,2.63,3.6,4.62,4.62,2.26,1.15,5.22,1.15,11.14,1.15h46.49M156.91,72.39v10.57M125.22,125.22h52.83v73.96l-26.41-14.68-26.41,14.68v-73.96Z"/></g></svg>